<mxfile modified="2023-05-06T17:35:25.727Z" host="app.diagrams.net" agent="Mozilla/5.0 (X11; Ubuntu; Linux x86_64; rv:109.0) Gecko/20100101 Firefox/112.0" etag="01M9nTh8jrWlBypIOWXt" version="21.1.4" type="github">
  <diagram id="Ht1M8jgEwFfnCIfOTk4-" name="Page-1">
    <mxGraphModel dx="2691" dy="2356" grid="1" gridSize="10" guides="1" tooltips="1" connect="1" arrows="1" fold="1" page="1" pageScale="1" pageWidth="1169" pageHeight="827" math="0" shadow="0">
      <root>
        <mxCell id="0" />
        <mxCell id="1" parent="0" />
        <mxCell id="1qa2345JDhDKehQNPxXo-15" value="VPC" style="points=[[0,0],[0.25,0],[0.5,0],[0.75,0],[1,0],[1,0.25],[1,0.5],[1,0.75],[1,1],[0.75,1],[0.5,1],[0.25,1],[0,1],[0,0.75],[0,0.5],[0,0.25]];outlineConnect=0;gradientColor=none;html=1;whiteSpace=wrap;fontSize=12;fontStyle=0;container=1;pointerEvents=0;collapsible=0;recursiveResize=0;shape=mxgraph.aws4.group;grIcon=mxgraph.aws4.group_vpc;strokeColor=#248814;fillColor=none;verticalAlign=top;align=left;spacingLeft=30;fontColor=#AAB7B8;dashed=0;" parent="1" vertex="1">
          <mxGeometry x="1130" y="-510" width="1160" height="768" as="geometry" />
        </mxCell>
        <mxCell id="1qa2345JDhDKehQNPxXo-14" value="Availability Zone 1" style="fillColor=none;strokeColor=#147EBA;dashed=1;verticalAlign=top;fontStyle=0;fontColor=#147EBA;whiteSpace=wrap;html=1;" parent="1qa2345JDhDKehQNPxXo-15" vertex="1">
          <mxGeometry x="30" y="40" width="330" height="430.5" as="geometry" />
        </mxCell>
        <mxCell id="1qa2345JDhDKehQNPxXo-31" value="Security group" style="fillColor=none;strokeColor=#DD3522;verticalAlign=top;fontStyle=0;fontColor=#DD3522;whiteSpace=wrap;html=1;" parent="1qa2345JDhDKehQNPxXo-15" vertex="1">
          <mxGeometry x="70" y="95" width="280" height="320" as="geometry" />
        </mxCell>
        <mxCell id="1qa2345JDhDKehQNPxXo-71" value="EC2 instance contents" style="points=[[0,0],[0.25,0],[0.5,0],[0.75,0],[1,0],[1,0.25],[1,0.5],[1,0.75],[1,1],[0.75,1],[0.5,1],[0.25,1],[0,1],[0,0.75],[0,0.5],[0,0.25]];outlineConnect=0;html=1;whiteSpace=wrap;fontSize=12;fontStyle=0;container=1;pointerEvents=0;collapsible=0;recursiveResize=0;shape=mxgraph.aws4.group;grIcon=mxgraph.aws4.group_ec2_instance_contents;strokeColor=#d6b656;fillColor=#fff2cc;verticalAlign=top;align=left;spacingLeft=30;dashed=0;" parent="1qa2345JDhDKehQNPxXo-15" vertex="1">
          <mxGeometry x="80" y="120" width="260" height="280" as="geometry" />
        </mxCell>
        <mxCell id="1qa2345JDhDKehQNPxXo-73" value="" style="sketch=0;outlineConnect=0;fontColor=#232F3E;gradientColor=none;fillColor=#D45B07;strokeColor=none;dashed=0;verticalLabelPosition=bottom;verticalAlign=top;align=center;html=1;fontSize=12;fontStyle=0;aspect=fixed;pointerEvents=1;shape=mxgraph.aws4.container_1;" parent="1qa2345JDhDKehQNPxXo-71" vertex="1">
          <mxGeometry x="21.33" y="111.5" width="54.2" height="35" as="geometry" />
        </mxCell>
        <mxCell id="1qa2345JDhDKehQNPxXo-77" value="" style="sketch=0;outlineConnect=0;fontColor=#232F3E;gradientColor=none;fillColor=#D45B07;strokeColor=none;dashed=0;verticalLabelPosition=bottom;verticalAlign=top;align=center;html=1;fontSize=12;fontStyle=0;aspect=fixed;pointerEvents=1;shape=mxgraph.aws4.container_1;" parent="1qa2345JDhDKehQNPxXo-71" vertex="1">
          <mxGeometry x="91.27999999999997" y="111.5" width="54.2" height="35" as="geometry" />
        </mxCell>
        <mxCell id="1qa2345JDhDKehQNPxXo-74" value="" style="sketch=0;outlineConnect=0;fontColor=#232F3E;gradientColor=none;fillColor=#D45B07;strokeColor=none;dashed=0;verticalLabelPosition=bottom;verticalAlign=top;align=center;html=1;fontSize=12;fontStyle=0;aspect=fixed;pointerEvents=1;shape=mxgraph.aws4.container_1;" parent="1qa2345JDhDKehQNPxXo-71" vertex="1">
          <mxGeometry x="91.28" y="80" width="54.2" height="35" as="geometry" />
        </mxCell>
        <mxCell id="1qa2345JDhDKehQNPxXo-76" value="" style="sketch=0;points=[[0,0,0],[0.25,0,0],[0.5,0,0],[0.75,0,0],[1,0,0],[0,1,0],[0.25,1,0],[0.5,1,0],[0.75,1,0],[1,1,0],[0,0.25,0],[0,0.5,0],[0,0.75,0],[1,0.25,0],[1,0.5,0],[1,0.75,0]];outlineConnect=0;gradientDirection=north;fillColor=#fff2cc;strokeColor=#D05C17;dashed=0;verticalLabelPosition=bottom;verticalAlign=top;align=center;html=1;fontSize=12;fontStyle=0;aspect=fixed;shape=mxgraph.aws4.resourceIcon;resIcon=mxgraph.aws4.containers;" parent="1qa2345JDhDKehQNPxXo-15" vertex="1">
          <mxGeometry x="89.43" y="149" width="78" height="78" as="geometry" />
        </mxCell>
        <mxCell id="1qa2345JDhDKehQNPxXo-79" value="Container runtime" style="rounded=0;whiteSpace=wrap;html=1;" parent="1qa2345JDhDKehQNPxXo-15" vertex="1">
          <mxGeometry x="89.43" y="340" width="240.57" height="20" as="geometry" />
        </mxCell>
        <mxCell id="1qa2345JDhDKehQNPxXo-80" value="OS" style="rounded=0;whiteSpace=wrap;html=1;" parent="1qa2345JDhDKehQNPxXo-15" vertex="1">
          <mxGeometry x="89.43000000000004" y="370" width="240.57" height="20" as="geometry" />
        </mxCell>
        <mxCell id="UEzPUAAOIrF-is8g5C7q-175" value="AWS Cloud" style="points=[[0,0],[0.25,0],[0.5,0],[0.75,0],[1,0],[1,0.25],[1,0.5],[1,0.75],[1,1],[0.75,1],[0.5,1],[0.25,1],[0,1],[0,0.75],[0,0.5],[0,0.25]];outlineConnect=0;gradientColor=none;html=1;whiteSpace=wrap;fontSize=12;fontStyle=0;shape=mxgraph.aws4.group;grIcon=mxgraph.aws4.group_aws_cloud_alt;strokeColor=#232F3E;fillColor=none;verticalAlign=top;align=center;spacingLeft=30;fontColor=#232F3E;dashed=0;labelBackgroundColor=#ffffff;container=1;pointerEvents=0;collapsible=0;recursiveResize=0;labelPosition=center;verticalLabelPosition=bottom;" parent="1" vertex="1">
          <mxGeometry x="440" y="-789.5" width="1870" height="1239.5" as="geometry" />
        </mxCell>
        <mxCell id="1qa2345JDhDKehQNPxXo-116" value="Availability Zone 2" style="fillColor=none;strokeColor=#147EBA;dashed=1;verticalAlign=top;fontStyle=0;fontColor=#147EBA;whiteSpace=wrap;html=1;" parent="UEzPUAAOIrF-is8g5C7q-175" vertex="1">
          <mxGeometry x="1380" y="309.5" width="440" height="580.5" as="geometry" />
        </mxCell>
        <mxCell id="1qa2345JDhDKehQNPxXo-5" value="&lt;font style=&quot;font-size: 14px;&quot;&gt;Terraform backend&lt;/font&gt;" style="fillColor=none;strokeColor=#5A6C86;dashed=1;verticalAlign=top;fontStyle=0;fontColor=#5A6C86;whiteSpace=wrap;html=1;" parent="UEzPUAAOIrF-is8g5C7q-175" vertex="1">
          <mxGeometry x="60" y="339.5" width="160" height="250.5" as="geometry" />
        </mxCell>
        <mxCell id="1qa2345JDhDKehQNPxXo-6" value="&lt;div&gt;Dynamo DB&lt;/div&gt;" style="sketch=0;points=[[0,0,0],[0.25,0,0],[0.5,0,0],[0.75,0,0],[1,0,0],[0,1,0],[0.25,1,0],[0.5,1,0],[0.75,1,0],[1,1,0],[0,0.25,0],[0,0.5,0],[0,0.75,0],[1,0.25,0],[1,0.5,0],[1,0.75,0]];outlineConnect=0;fontColor=#232F3E;gradientColor=#4D72F3;gradientDirection=north;fillColor=#3334B9;strokeColor=#ffffff;dashed=0;verticalLabelPosition=bottom;verticalAlign=top;align=center;html=1;fontSize=12;fontStyle=0;aspect=fixed;shape=mxgraph.aws4.resourceIcon;resIcon=mxgraph.aws4.dynamodb;" parent="UEzPUAAOIrF-is8g5C7q-175" vertex="1">
          <mxGeometry x="101" y="489.5" width="78" height="78" as="geometry" />
        </mxCell>
        <mxCell id="1qa2345JDhDKehQNPxXo-9" value="S3 bucket" style="sketch=0;points=[[0,0,0],[0.25,0,0],[0.5,0,0],[0.75,0,0],[1,0,0],[0,1,0],[0.25,1,0],[0.5,1,0],[0.75,1,0],[1,1,0],[0,0.25,0],[0,0.5,0],[0,0.75,0],[1,0.25,0],[1,0.5,0],[1,0.75,0]];outlineConnect=0;fontColor=#232F3E;gradientColor=#60A337;gradientDirection=north;fillColor=#277116;strokeColor=#ffffff;dashed=0;verticalLabelPosition=bottom;verticalAlign=top;align=center;html=1;fontSize=12;fontStyle=0;aspect=fixed;shape=mxgraph.aws4.resourceIcon;resIcon=mxgraph.aws4.s3;" parent="UEzPUAAOIrF-is8g5C7q-175" vertex="1">
          <mxGeometry x="100" y="376.5" width="78" height="78" as="geometry" />
        </mxCell>
        <mxCell id="1qa2345JDhDKehQNPxXo-12" value="AWS Account" style="points=[[0,0],[0.25,0],[0.5,0],[0.75,0],[1,0],[1,0.25],[1,0.5],[1,0.75],[1,1],[0.75,1],[0.5,1],[0.25,1],[0,1],[0,0.75],[0,0.5],[0,0.25]];outlineConnect=0;gradientColor=none;html=1;whiteSpace=wrap;fontSize=12;fontStyle=0;container=1;pointerEvents=0;collapsible=0;recursiveResize=0;shape=mxgraph.aws4.group;grIcon=mxgraph.aws4.group_account;strokeColor=#CD2264;fillColor=none;verticalAlign=top;align=left;spacingLeft=30;fontColor=#CD2264;dashed=0;" parent="UEzPUAAOIrF-is8g5C7q-175" vertex="1">
          <mxGeometry x="225.25" y="20" width="604.75" height="170" as="geometry" />
        </mxCell>
        <mxCell id="1qa2345JDhDKehQNPxXo-21" value="IAM group" style="swimlane;whiteSpace=wrap;html=1;" parent="1qa2345JDhDKehQNPxXo-12" vertex="1">
          <mxGeometry x="14.75" y="29.5" width="115.25" height="130" as="geometry" />
        </mxCell>
        <mxCell id="1qa2345JDhDKehQNPxXo-11" value="IAM user" style="sketch=0;outlineConnect=0;fontColor=#232F3E;gradientColor=none;fillColor=#232F3D;strokeColor=none;dashed=0;verticalLabelPosition=bottom;verticalAlign=top;align=center;html=1;fontSize=12;fontStyle=0;aspect=fixed;pointerEvents=1;shape=mxgraph.aws4.user;" parent="1qa2345JDhDKehQNPxXo-21" vertex="1">
          <mxGeometry x="32.379999999999995" y="40" width="60.5" height="60.5" as="geometry" />
        </mxCell>
        <mxCell id="1qa2345JDhDKehQNPxXo-120" value="IAM DevOps group" style="swimlane;whiteSpace=wrap;html=1;" parent="1qa2345JDhDKehQNPxXo-12" vertex="1">
          <mxGeometry x="144.75" y="29.5" width="185.25" height="130" as="geometry" />
        </mxCell>
        <mxCell id="1qa2345JDhDKehQNPxXo-121" value="user 1" style="sketch=0;outlineConnect=0;fontColor=#232F3E;gradientColor=none;fillColor=#232F3D;strokeColor=none;dashed=0;verticalLabelPosition=bottom;verticalAlign=top;align=center;html=1;fontSize=12;fontStyle=0;aspect=fixed;pointerEvents=1;shape=mxgraph.aws4.user;" parent="1qa2345JDhDKehQNPxXo-120" vertex="1">
          <mxGeometry x="19.999999999999993" y="34.75" width="60.5" height="60.5" as="geometry" />
        </mxCell>
        <mxCell id="1qa2345JDhDKehQNPxXo-122" value="user 2" style="sketch=0;outlineConnect=0;fontColor=#232F3E;gradientColor=none;fillColor=#232F3D;strokeColor=none;dashed=0;verticalLabelPosition=bottom;verticalAlign=top;align=center;html=1;fontSize=12;fontStyle=0;aspect=fixed;pointerEvents=1;shape=mxgraph.aws4.user;" parent="1qa2345JDhDKehQNPxXo-120" vertex="1">
          <mxGeometry x="100" y="34.75" width="60.5" height="60.5" as="geometry" />
        </mxCell>
        <mxCell id="xkbuqrlcCD7-52qOjMoG-44" value="&lt;div&gt;Instance Role&lt;/div&gt;&lt;div&gt;ECR Access&lt;br&gt;&lt;/div&gt;" style="sketch=0;outlineConnect=0;fontColor=#232F3E;gradientColor=none;fillColor=#BF0816;strokeColor=none;dashed=0;verticalLabelPosition=bottom;verticalAlign=top;align=center;html=1;fontSize=12;fontStyle=0;aspect=fixed;pointerEvents=1;shape=mxgraph.aws4.role;" vertex="1" parent="1qa2345JDhDKehQNPxXo-12">
          <mxGeometry x="374.75" y="19.5" width="78" height="44" as="geometry" />
        </mxCell>
        <mxCell id="xkbuqrlcCD7-52qOjMoG-19" style="edgeStyle=orthogonalEdgeStyle;rounded=0;orthogonalLoop=1;jettySize=auto;html=1;exitX=0;exitY=0.5;exitDx=0;exitDy=0;entryX=1;entryY=0.364;entryDx=0;entryDy=0;entryPerimeter=0;" edge="1" parent="UEzPUAAOIrF-is8g5C7q-175" source="1qa2345JDhDKehQNPxXo-29" target="xkbuqrlcCD7-52qOjMoG-22">
          <mxGeometry relative="1" as="geometry">
            <mxPoint x="1128.0000000000005" y="132" as="targetPoint" />
          </mxGeometry>
        </mxCell>
        <mxCell id="1qa2345JDhDKehQNPxXo-29" value="&lt;div&gt;Load Balsncing&lt;/div&gt;&lt;div&gt;rules&lt;br&gt;&lt;/div&gt;" style="image;aspect=fixed;perimeter=ellipsePerimeter;html=1;align=center;shadow=0;dashed=0;fontColor=#4277BB;labelBackgroundColor=default;fontSize=12;spacingTop=3;image=img/lib/ibm/vpc/Rules.svg;" parent="UEzPUAAOIrF-is8g5C7q-175" vertex="1">
          <mxGeometry x="1340" y="39.5" width="60" height="60" as="geometry" />
        </mxCell>
        <mxCell id="1qa2345JDhDKehQNPxXo-61" value="Pricing" style="shape=image;html=1;verticalAlign=top;verticalLabelPosition=bottom;labelBackgroundColor=#ffffff;imageAspect=0;aspect=fixed;image=https://cdn1.iconfinder.com/data/icons/office-171/32/office-01-128.png" parent="UEzPUAAOIrF-is8g5C7q-175" vertex="1">
          <mxGeometry x="70" y="630.5" width="128" height="128" as="geometry" />
        </mxCell>
        <mxCell id="1qa2345JDhDKehQNPxXo-70" value="ECR registry" style="sketch=0;points=[[0,0,0],[0.25,0,0],[0.5,0,0],[0.75,0,0],[1,0,0],[0,1,0],[0.25,1,0],[0.5,1,0],[0.75,1,0],[1,1,0],[0,0.25,0],[0,0.5,0],[0,0.75,0],[1,0.25,0],[1,0.5,0],[1,0.75,0]];outlineConnect=0;fontColor=#232F3E;gradientColor=#F78E04;gradientDirection=north;fillColor=#D05C17;strokeColor=#ffffff;dashed=0;verticalLabelPosition=bottom;verticalAlign=top;align=center;html=1;fontSize=12;fontStyle=0;aspect=fixed;shape=mxgraph.aws4.resourceIcon;resIcon=mxgraph.aws4.ecr;" parent="UEzPUAAOIrF-is8g5C7q-175" vertex="1">
          <mxGeometry x="770" y="1069.5" width="78" height="78" as="geometry" />
        </mxCell>
        <mxCell id="1qa2345JDhDKehQNPxXo-81" value="AMI registry" style="image;aspect=fixed;perimeter=ellipsePerimeter;html=1;align=center;shadow=0;dashed=0;fontColor=#4277BB;labelBackgroundColor=default;fontSize=12;spacingTop=3;image=img/lib/ibm/vpc/ImageService.svg;" parent="UEzPUAAOIrF-is8g5C7q-175" vertex="1">
          <mxGeometry x="930" y="1073.25" width="68.5" height="68.5" as="geometry" />
        </mxCell>
        <mxCell id="1qa2345JDhDKehQNPxXo-84" style="edgeStyle=orthogonalEdgeStyle;rounded=0;orthogonalLoop=1;jettySize=auto;html=1;exitX=0;exitY=0.5;exitDx=0;exitDy=0;exitPerimeter=0;" parent="UEzPUAAOIrF-is8g5C7q-175" source="1qa2345JDhDKehQNPxXo-82" target="1qa2345JDhDKehQNPxXo-81" edge="1">
          <mxGeometry relative="1" as="geometry" />
        </mxCell>
        <mxCell id="1qa2345JDhDKehQNPxXo-82" value="Image builder" style="sketch=0;points=[[0,0,0],[0.25,0,0],[0.5,0,0],[0.75,0,0],[1,0,0],[0,1,0],[0.25,1,0],[0.5,1,0],[0.75,1,0],[1,1,0],[0,0.25,0],[0,0.5,0],[0,0.75,0],[1,0.25,0],[1,0.5,0],[1,0.75,0]];outlineConnect=0;fontColor=#232F3E;gradientColor=#F78E04;gradientDirection=north;fillColor=#D05C17;strokeColor=#ffffff;dashed=0;verticalLabelPosition=bottom;verticalAlign=top;align=center;html=1;fontSize=12;fontStyle=0;aspect=fixed;shape=mxgraph.aws4.resourceIcon;resIcon=mxgraph.aws4.ec2_image_builder;" parent="UEzPUAAOIrF-is8g5C7q-175" vertex="1">
          <mxGeometry x="1050" y="1073.25" width="70.5" height="70.5" as="geometry" />
        </mxCell>
        <mxCell id="1qa2345JDhDKehQNPxXo-102" value="" style="group" parent="UEzPUAAOIrF-is8g5C7q-175" vertex="1" connectable="0">
          <mxGeometry x="1420" y="339.5" width="380" height="250.5" as="geometry" />
        </mxCell>
        <mxCell id="1qa2345JDhDKehQNPxXo-88" value="Public subnet" style="points=[[0,0],[0.25,0],[0.5,0],[0.75,0],[1,0],[1,0.25],[1,0.5],[1,0.75],[1,1],[0.75,1],[0.5,1],[0.25,1],[0,1],[0,0.75],[0,0.5],[0,0.25]];outlineConnect=0;gradientColor=none;html=1;whiteSpace=wrap;fontSize=12;fontStyle=0;container=1;pointerEvents=0;collapsible=0;recursiveResize=0;shape=mxgraph.aws4.group;grIcon=mxgraph.aws4.group_security_group;grStroke=0;strokeColor=#248814;fillColor=#E9F3E6;verticalAlign=top;align=left;spacingLeft=30;fontColor=#248814;dashed=0;" parent="1qa2345JDhDKehQNPxXo-102" vertex="1">
          <mxGeometry width="380" height="250.49999999999997" as="geometry" />
        </mxCell>
        <mxCell id="1qa2345JDhDKehQNPxXo-33" value="" style="strokeColor=#dddddd;shadow=1;strokeWidth=1;rounded=1;absoluteArcSize=1;arcSize=2;" parent="1qa2345JDhDKehQNPxXo-102" vertex="1">
          <mxGeometry x="20.5" y="47.39189189189189" width="120" height="56.41891891891891" as="geometry" />
        </mxCell>
        <mxCell id="1qa2345JDhDKehQNPxXo-34" value="&lt;div&gt;Inbound&lt;/div&gt;&lt;div&gt;rules&lt;/div&gt;" style="editableCssRules=.*;html=1;fontColor=#999999;shape=image;verticalLabelPosition=middle;labelBackgroundColor=#ffffff;verticalAlign=middle;labelPosition=right;align=left;spacingLeft=20;part=1;points=[];imageAspect=0;image=data:image/svg+xml,PHN2ZyB4bWxucz0iaHR0cDovL3d3dy53My5vcmcvMjAwMC9zdmciIHhtbG5zOnY9Imh0dHBzOi8vdmVjdGEuaW8vbmFubyIgd2lkdGg9IjIwIiBoZWlnaHQ9IjIwIiBmaWxsPSIjNDI4NWY0IiB2aWV3Qm94PSIwIDAgMjAgMjAiPiYjeGE7CTxzdHlsZSB0eXBlPSJ0ZXh0L2NzcyI+LnN0MCB7IGZpbGw6IHJnYigyNDQsIDExMCwgNjEpOyB9IDwvc3R5bGU+JiN4YTsJPHBhdGggY2xhc3M9InN0MCIgZD0iTTAgMGg4Ljg5djIuMjJIMHptMCAxNy43OGg4Ljg5VjIwSDB6bTAtOC44OWg4Ljg5djIuMjJIMHpNMTEuMTEgMEgyMHYyLjIyaC04Ljg5em0wIDE3Ljc4SDIwVjIwaC04Ljg5em0wLTguODlIMjB2Mi4yMmgtOC44OXpNNS41NSA0LjQ0aDguODl2Mi4yMkg1LjU1em0wIDguODloOC44OXYyLjIySDUuNTV6TTAgNC40NGgzLjMzdjIuMjJIMHptMCA4Ljg5aDMuMzN2Mi4yMkgwem0xNi42Ny04Ljg5SDIwdjIuMjJoLTMuMzN6bTAgOC44OUgyMHYyLjIyaC0zLjMzeiIvPiYjeGE7PC9zdmc+;labelBorderColor=none;" parent="1qa2345JDhDKehQNPxXo-33" vertex="1">
          <mxGeometry width="30" height="30" relative="1" as="geometry">
            <mxPoint x="15" y="15" as="offset" />
          </mxGeometry>
        </mxCell>
        <mxCell id="1qa2345JDhDKehQNPxXo-35" value="" style="strokeColor=#dddddd;shadow=1;strokeWidth=1;rounded=1;absoluteArcSize=1;arcSize=2;" parent="1qa2345JDhDKehQNPxXo-102" vertex="1">
          <mxGeometry x="20.5" y="126.37837837837836" width="120" height="56.41891891891891" as="geometry" />
        </mxCell>
        <mxCell id="1qa2345JDhDKehQNPxXo-36" value="&lt;div&gt;outbound&lt;/div&gt;&lt;div&gt;rules&lt;/div&gt;" style="editableCssRules=.*;html=1;fontColor=#999999;shape=image;verticalLabelPosition=middle;labelBackgroundColor=#ffffff;verticalAlign=middle;labelPosition=right;align=left;spacingLeft=20;part=1;points=[];imageAspect=0;image=data:image/svg+xml,PHN2ZyB4bWxucz0iaHR0cDovL3d3dy53My5vcmcvMjAwMC9zdmciIHhtbG5zOnY9Imh0dHBzOi8vdmVjdGEuaW8vbmFubyIgd2lkdGg9IjIwIiBoZWlnaHQ9IjIwIiBmaWxsPSIjNDI4NWY0IiB2aWV3Qm94PSIwIDAgMjAgMjAiPiYjeGE7CTxzdHlsZSB0eXBlPSJ0ZXh0L2NzcyI+JiN4YTsJLnN0MHtmaWxsOiM0Mjg1ZjQ7fSYjeGE7CTwvc3R5bGU+JiN4YTsJPHBhdGggY2xhc3M9InN0MCIgZD0iTTAgMGg4Ljg5djIuMjJIMHptMCAxNy43OGg4Ljg5VjIwSDB6bTAtOC44OWg4Ljg5djIuMjJIMHpNMTEuMTEgMEgyMHYyLjIyaC04Ljg5em0wIDE3Ljc4SDIwVjIwaC04Ljg5em0wLTguODlIMjB2Mi4yMmgtOC44OXpNNS41NSA0LjQ0aDguODl2Mi4yMkg1LjU1em0wIDguODloOC44OXYyLjIySDUuNTV6TTAgNC40NGgzLjMzdjIuMjJIMHptMCA4Ljg5aDMuMzN2Mi4yMkgwem0xNi42Ny04Ljg5SDIwdjIuMjJoLTMuMzN6bTAgOC44OUgyMHYyLjIyaC0zLjMzeiIvPiYjeGE7PC9zdmc+;" parent="1qa2345JDhDKehQNPxXo-35" vertex="1">
          <mxGeometry width="30" height="30" relative="1" as="geometry">
            <mxPoint x="15" y="15" as="offset" />
          </mxGeometry>
        </mxCell>
        <mxCell id="1qa2345JDhDKehQNPxXo-101" value="" style="group" parent="1qa2345JDhDKehQNPxXo-102" vertex="1" connectable="0">
          <mxGeometry x="220.5" y="47.39189189189189" width="130" height="146.68918918918916" as="geometry" />
        </mxCell>
        <mxCell id="1qa2345JDhDKehQNPxXo-32" value="Security group" style="fillColor=none;strokeColor=#DD3522;verticalAlign=top;fontStyle=0;fontColor=#DD3522;whiteSpace=wrap;html=1;" parent="1qa2345JDhDKehQNPxXo-101" vertex="1">
          <mxGeometry width="130" height="146.68918918918916" as="geometry" />
        </mxCell>
        <mxCell id="1qa2345JDhDKehQNPxXo-28" value="Amazon EC2" style="sketch=0;outlineConnect=0;fontColor=#232F3E;gradientColor=none;strokeColor=#ffffff;fillColor=#232F3E;dashed=0;verticalLabelPosition=middle;verticalAlign=bottom;align=center;html=1;whiteSpace=wrap;fontSize=10;fontStyle=1;spacing=3;shape=mxgraph.aws4.productIcon;prIcon=mxgraph.aws4.ec2;" parent="1qa2345JDhDKehQNPxXo-101" vertex="1">
          <mxGeometry x="25" y="31.59" width="80" height="108.41" as="geometry" />
        </mxCell>
        <mxCell id="1qa2345JDhDKehQNPxXo-59" style="edgeStyle=orthogonalEdgeStyle;rounded=0;orthogonalLoop=1;jettySize=auto;html=1;exitX=1;exitY=0.5;exitDx=0;exitDy=0;entryX=-0.008;entryY=0.192;entryDx=0;entryDy=0;entryPerimeter=0;" parent="1qa2345JDhDKehQNPxXo-102" source="1qa2345JDhDKehQNPxXo-33" target="1qa2345JDhDKehQNPxXo-32" edge="1">
          <mxGeometry relative="1" as="geometry" />
        </mxCell>
        <mxCell id="1qa2345JDhDKehQNPxXo-103" style="edgeStyle=orthogonalEdgeStyle;rounded=0;orthogonalLoop=1;jettySize=auto;html=1;exitX=0;exitY=0.75;exitDx=0;exitDy=0;entryX=1;entryY=0.5;entryDx=0;entryDy=0;" parent="1qa2345JDhDKehQNPxXo-102" source="1qa2345JDhDKehQNPxXo-32" target="1qa2345JDhDKehQNPxXo-35" edge="1">
          <mxGeometry relative="1" as="geometry">
            <Array as="points">
              <mxPoint x="221" y="154.5878378378378" />
            </Array>
          </mxGeometry>
        </mxCell>
        <mxCell id="1qa2345JDhDKehQNPxXo-108" value="" style="edgeStyle=orthogonalEdgeStyle;rounded=0;orthogonalLoop=1;jettySize=auto;html=1;" parent="UEzPUAAOIrF-is8g5C7q-175" source="1qa2345JDhDKehQNPxXo-86" target="1qa2345JDhDKehQNPxXo-28" edge="1">
          <mxGeometry relative="1" as="geometry" />
        </mxCell>
        <mxCell id="1qa2345JDhDKehQNPxXo-86" value="&lt;br&gt;&lt;div&gt;NAT&lt;/div&gt;" style="outlineConnect=0;dashed=0;verticalLabelPosition=middle;verticalAlign=middle;align=left;html=1;shape=mxgraph.aws3.vpc_nat_gateway;fillColor=#F58534;gradientColor=none;labelPosition=right;" parent="UEzPUAAOIrF-is8g5C7q-175" vertex="1">
          <mxGeometry x="1671" y="557.5" width="69" height="72" as="geometry" />
        </mxCell>
        <mxCell id="1qa2345JDhDKehQNPxXo-87" value="Private subnet" style="points=[[0,0],[0.25,0],[0.5,0],[0.75,0],[1,0],[1,0.25],[1,0.5],[1,0.75],[1,1],[0.75,1],[0.5,1],[0.25,1],[0,1],[0,0.75],[0,0.5],[0,0.25]];outlineConnect=0;gradientColor=none;html=1;whiteSpace=wrap;fontSize=12;fontStyle=0;container=1;pointerEvents=0;collapsible=0;recursiveResize=0;shape=mxgraph.aws4.group;grIcon=mxgraph.aws4.group_security_group;grStroke=0;strokeColor=#147EBA;fillColor=#E6F2F8;verticalAlign=top;align=left;spacingLeft=30;fontColor=#147EBA;dashed=0;" parent="UEzPUAAOIrF-is8g5C7q-175" vertex="1">
          <mxGeometry x="1420.5" y="719.5" width="379.5" height="160.5" as="geometry" />
        </mxCell>
        <mxCell id="q_qd38y-_XPypliWxLEi-4" style="edgeStyle=orthogonalEdgeStyle;rounded=0;orthogonalLoop=1;jettySize=auto;html=1;entryX=0.5;entryY=1;entryDx=0;entryDy=0;entryPerimeter=0;" parent="UEzPUAAOIrF-is8g5C7q-175" source="q_qd38y-_XPypliWxLEi-1" target="1qa2345JDhDKehQNPxXo-86" edge="1">
          <mxGeometry relative="1" as="geometry" />
        </mxCell>
        <mxCell id="q_qd38y-_XPypliWxLEi-1" value="Routing table" style="outlineConnect=0;dashed=0;verticalLabelPosition=bottom;verticalAlign=top;align=center;html=1;shape=mxgraph.aws3.route_table;fillColor=#F58536;gradientColor=none;" parent="UEzPUAAOIrF-is8g5C7q-175" vertex="1">
          <mxGeometry x="1560" y="620.5" width="75" height="69" as="geometry" />
        </mxCell>
        <mxCell id="1qa2345JDhDKehQNPxXo-117" value="" style="group" parent="UEzPUAAOIrF-is8g5C7q-175" vertex="1" connectable="0">
          <mxGeometry x="1640.5" y="726.4018918918919" width="130" height="146.68918918918905" as="geometry" />
        </mxCell>
        <mxCell id="1qa2345JDhDKehQNPxXo-110" value="Security group" style="fillColor=none;strokeColor=#DD3522;verticalAlign=top;fontStyle=0;fontColor=#DD3522;whiteSpace=wrap;html=1;" parent="1qa2345JDhDKehQNPxXo-117" vertex="1">
          <mxGeometry width="130" height="146.68918918918916" as="geometry" />
        </mxCell>
        <mxCell id="1qa2345JDhDKehQNPxXo-111" value="Amazon EC2" style="sketch=0;outlineConnect=0;fontColor=#232F3E;gradientColor=none;strokeColor=#ffffff;fillColor=#232F3E;dashed=0;verticalLabelPosition=middle;verticalAlign=bottom;align=center;html=1;whiteSpace=wrap;fontSize=10;fontStyle=1;spacing=3;shape=mxgraph.aws4.productIcon;prIcon=mxgraph.aws4.ec2;" parent="1qa2345JDhDKehQNPxXo-117" vertex="1">
          <mxGeometry x="25" y="26.164594594594632" width="80" height="112.83783783783782" as="geometry" />
        </mxCell>
        <mxCell id="q_qd38y-_XPypliWxLEi-2" style="edgeStyle=orthogonalEdgeStyle;rounded=0;orthogonalLoop=1;jettySize=auto;html=1;exitX=0.5;exitY=0;exitDx=0;exitDy=0;entryX=1;entryY=0.5;entryDx=0;entryDy=0;entryPerimeter=0;" parent="UEzPUAAOIrF-is8g5C7q-175" source="1qa2345JDhDKehQNPxXo-110" target="q_qd38y-_XPypliWxLEi-1" edge="1">
          <mxGeometry relative="1" as="geometry" />
        </mxCell>
        <mxCell id="xkbuqrlcCD7-52qOjMoG-24" style="edgeStyle=orthogonalEdgeStyle;rounded=0;orthogonalLoop=1;jettySize=auto;html=1;entryX=0;entryY=0.5;entryDx=0;entryDy=0;" edge="1" parent="UEzPUAAOIrF-is8g5C7q-175" source="xkbuqrlcCD7-52qOjMoG-22" target="xkbuqrlcCD7-52qOjMoG-23">
          <mxGeometry relative="1" as="geometry" />
        </mxCell>
        <mxCell id="xkbuqrlcCD7-52qOjMoG-22" value="Application Load Balancer" style="sketch=0;outlineConnect=0;fontColor=#232F3E;gradientColor=none;strokeColor=#ffffff;fillColor=#232F3E;dashed=0;verticalLabelPosition=middle;verticalAlign=bottom;align=center;html=1;whiteSpace=wrap;fontSize=10;fontStyle=1;spacing=3;shape=mxgraph.aws4.productIcon;prIcon=mxgraph.aws4.application_load_balancer;" vertex="1" parent="UEzPUAAOIrF-is8g5C7q-175">
          <mxGeometry x="1180" y="99.5" width="80" height="110" as="geometry" />
        </mxCell>
        <mxCell id="xkbuqrlcCD7-52qOjMoG-40" style="edgeStyle=orthogonalEdgeStyle;rounded=0;orthogonalLoop=1;jettySize=auto;html=1;exitX=1;exitY=0.5;exitDx=0;exitDy=0;" edge="1" parent="UEzPUAAOIrF-is8g5C7q-175" source="xkbuqrlcCD7-52qOjMoG-23" target="xkbuqrlcCD7-52qOjMoG-39">
          <mxGeometry relative="1" as="geometry" />
        </mxCell>
        <mxCell id="xkbuqrlcCD7-52qOjMoG-23" value="&lt;div&gt;ELB Listener&lt;/div&gt;&lt;div&gt;Group&lt;br&gt;&lt;/div&gt;" style="image;aspect=fixed;perimeter=ellipsePerimeter;html=1;align=center;shadow=0;dashed=0;fontColor=#4277BB;labelBackgroundColor=default;fontSize=12;spacingTop=3;image=img/lib/ibm/vpc/LoadBalancerListener.svg;" vertex="1" parent="UEzPUAAOIrF-is8g5C7q-175">
          <mxGeometry x="1200" y="419.5" width="60" height="60" as="geometry" />
        </mxCell>
        <mxCell id="xkbuqrlcCD7-52qOjMoG-31" style="edgeStyle=orthogonalEdgeStyle;rounded=0;orthogonalLoop=1;jettySize=auto;html=1;" edge="1" parent="UEzPUAAOIrF-is8g5C7q-175" source="xkbuqrlcCD7-52qOjMoG-28" target="xkbuqrlcCD7-52qOjMoG-22">
          <mxGeometry relative="1" as="geometry">
            <Array as="points">
              <mxPoint x="1670" y="-20" />
              <mxPoint x="1210" y="-20" />
            </Array>
          </mxGeometry>
        </mxCell>
        <mxCell id="xkbuqrlcCD7-52qOjMoG-28" value="Amazon Route 53" style="sketch=0;outlineConnect=0;fontColor=#232F3E;gradientColor=none;strokeColor=#ffffff;fillColor=#232F3E;dashed=0;verticalLabelPosition=middle;verticalAlign=bottom;align=center;html=1;whiteSpace=wrap;fontSize=10;fontStyle=1;spacing=3;shape=mxgraph.aws4.productIcon;prIcon=mxgraph.aws4.route_53;" vertex="1" parent="UEzPUAAOIrF-is8g5C7q-175">
          <mxGeometry x="1640.5" y="20" width="80" height="110" as="geometry" />
        </mxCell>
        <mxCell id="xkbuqrlcCD7-52qOjMoG-32" value="" style="sketch=0;outlineConnect=0;fontColor=#232F3E;gradientColor=none;fillColor=#3F8624;strokeColor=none;dashed=0;verticalLabelPosition=bottom;verticalAlign=top;align=center;html=1;fontSize=12;fontStyle=0;aspect=fixed;pointerEvents=1;shape=mxgraph.aws4.bucket_with_objects;" vertex="1" parent="UEzPUAAOIrF-is8g5C7q-175">
          <mxGeometry x="1681.5" y="1124.5" width="75" height="78" as="geometry" />
        </mxCell>
        <mxCell id="xkbuqrlcCD7-52qOjMoG-37" style="edgeStyle=orthogonalEdgeStyle;rounded=0;orthogonalLoop=1;jettySize=auto;html=1;" edge="1" parent="UEzPUAAOIrF-is8g5C7q-175" source="xkbuqrlcCD7-52qOjMoG-35" target="xkbuqrlcCD7-52qOjMoG-32">
          <mxGeometry relative="1" as="geometry" />
        </mxCell>
        <mxCell id="xkbuqrlcCD7-52qOjMoG-35" value="Gateway Enfpoint" style="sketch=0;outlineConnect=0;fontColor=#232F3E;gradientColor=none;fillColor=#4D27AA;strokeColor=none;dashed=0;verticalLabelPosition=bottom;verticalAlign=top;align=left;html=1;fontSize=12;fontStyle=0;aspect=fixed;pointerEvents=1;shape=mxgraph.aws4.endpoint;labelPosition=right;" vertex="1" parent="UEzPUAAOIrF-is8g5C7q-175">
          <mxGeometry x="1680" y="991.4999999999999" width="78" height="78" as="geometry" />
        </mxCell>
        <mxCell id="xkbuqrlcCD7-52qOjMoG-38" style="edgeStyle=orthogonalEdgeStyle;rounded=0;orthogonalLoop=1;jettySize=auto;html=1;exitX=0.5;exitY=1;exitDx=0;exitDy=0;" edge="1" parent="UEzPUAAOIrF-is8g5C7q-175" source="1qa2345JDhDKehQNPxXo-110" target="xkbuqrlcCD7-52qOjMoG-35">
          <mxGeometry relative="1" as="geometry" />
        </mxCell>
        <mxCell id="xkbuqrlcCD7-52qOjMoG-42" style="edgeStyle=orthogonalEdgeStyle;rounded=0;orthogonalLoop=1;jettySize=auto;html=1;entryX=0;entryY=0.5;entryDx=0;entryDy=0;" edge="1" parent="UEzPUAAOIrF-is8g5C7q-175" source="xkbuqrlcCD7-52qOjMoG-39" target="1qa2345JDhDKehQNPxXo-33">
          <mxGeometry relative="1" as="geometry" />
        </mxCell>
        <mxCell id="xkbuqrlcCD7-52qOjMoG-39" value="&lt;div&gt;Subnet&lt;/div&gt;&lt;div&gt;&lt;b&gt;NACL&lt;/b&gt;&lt;/div&gt;" style="sketch=0;outlineConnect=0;fontColor=#232F3E;gradientColor=none;fillColor=#4D27AA;strokeColor=none;dashed=0;verticalLabelPosition=bottom;verticalAlign=top;align=center;html=1;fontSize=12;fontStyle=0;aspect=fixed;pointerEvents=1;shape=mxgraph.aws4.network_access_control_list;" vertex="1" parent="UEzPUAAOIrF-is8g5C7q-175">
          <mxGeometry x="1314" y="419.5" width="60" height="60" as="geometry" />
        </mxCell>
        <mxCell id="xkbuqrlcCD7-52qOjMoG-43" style="edgeStyle=orthogonalEdgeStyle;rounded=0;orthogonalLoop=1;jettySize=auto;html=1;exitX=0;exitY=0.5;exitDx=0;exitDy=0;" edge="1" parent="UEzPUAAOIrF-is8g5C7q-175" source="1qa2345JDhDKehQNPxXo-35" target="xkbuqrlcCD7-52qOjMoG-39">
          <mxGeometry relative="1" as="geometry" />
        </mxCell>
        <mxCell id="xkbuqrlcCD7-52qOjMoG-46" style="edgeStyle=orthogonalEdgeStyle;rounded=0;orthogonalLoop=1;jettySize=auto;html=1;" edge="1" parent="UEzPUAAOIrF-is8g5C7q-175" source="xkbuqrlcCD7-52qOjMoG-45">
          <mxGeometry relative="1" as="geometry">
            <mxPoint x="1720" y="1099.5" as="targetPoint" />
            <Array as="points">
              <mxPoint x="1660" y="1100" />
              <mxPoint x="1660" y="1100" />
            </Array>
          </mxGeometry>
        </mxCell>
        <mxCell id="xkbuqrlcCD7-52qOjMoG-45" value="&lt;div&gt;S3 Access&lt;/div&gt;&lt;div&gt;Policy&lt;br&gt;&lt;/div&gt;" style="sketch=0;outlineConnect=0;fontColor=#232F3E;gradientColor=none;fillColor=#3F8624;strokeColor=none;dashed=0;verticalLabelPosition=bottom;verticalAlign=top;align=center;html=1;fontSize=12;fontStyle=0;aspect=fixed;pointerEvents=1;shape=mxgraph.aws4.policy;" vertex="1" parent="UEzPUAAOIrF-is8g5C7q-175">
          <mxGeometry x="1571" y="1080.5" width="78" height="67" as="geometry" />
        </mxCell>
        <mxCell id="xkbuqrlcCD7-52qOjMoG-50" style="edgeStyle=orthogonalEdgeStyle;rounded=0;orthogonalLoop=1;jettySize=auto;html=1;" edge="1" parent="UEzPUAAOIrF-is8g5C7q-175" source="xkbuqrlcCD7-52qOjMoG-49" target="xkbuqrlcCD7-52qOjMoG-22">
          <mxGeometry relative="1" as="geometry" />
        </mxCell>
        <mxCell id="xkbuqrlcCD7-52qOjMoG-49" value="Sticky Sessions" style="image;aspect=fixed;perimeter=ellipsePerimeter;html=1;align=center;shadow=0;dashed=0;fontColor=#4277BB;labelBackgroundColor=default;fontSize=12;spacingTop=3;image=img/lib/ibm/vpc/Rules.svg;" vertex="1" parent="UEzPUAAOIrF-is8g5C7q-175">
          <mxGeometry x="1340" y="149.5" width="60" height="60" as="geometry" />
        </mxCell>
        <mxCell id="1qa2345JDhDKehQNPxXo-69" style="edgeStyle=orthogonalEdgeStyle;rounded=0;orthogonalLoop=1;jettySize=auto;html=1;" parent="1" source="1qa2345JDhDKehQNPxXo-2" target="1qa2345JDhDKehQNPxXo-64" edge="1">
          <mxGeometry relative="1" as="geometry">
            <mxPoint x="30" y="-641" as="targetPoint" />
          </mxGeometry>
        </mxCell>
        <mxCell id="1qa2345JDhDKehQNPxXo-123" style="edgeStyle=orthogonalEdgeStyle;rounded=0;orthogonalLoop=1;jettySize=auto;html=1;entryX=0;entryY=0.5;entryDx=0;entryDy=0;" parent="1" source="1qa2345JDhDKehQNPxXo-2" target="1qa2345JDhDKehQNPxXo-3" edge="1">
          <mxGeometry relative="1" as="geometry" />
        </mxCell>
        <mxCell id="1qa2345JDhDKehQNPxXo-2" value="AWS CLI" style="sketch=0;points=[[0,0,0],[0.25,0,0],[0.5,0,0],[0.75,0,0],[1,0,0],[0,1,0],[0.25,1,0],[0.5,1,0],[0.75,1,0],[1,1,0],[0,0.25,0],[0,0.5,0],[0,0.75,0],[1,0.25,0],[1,0.5,0],[1,0.75,0]];outlineConnect=0;fontColor=#232F3E;gradientColor=#4D72F3;gradientDirection=north;fillColor=#3334B9;strokeColor=#ffffff;dashed=0;verticalLabelPosition=bottom;verticalAlign=top;align=center;html=1;fontSize=12;fontStyle=0;aspect=fixed;shape=mxgraph.aws4.resourceIcon;resIcon=mxgraph.aws4.command_line_interface;" parent="1" vertex="1">
          <mxGeometry x="-170" y="-680" width="78" height="78" as="geometry" />
        </mxCell>
        <mxCell id="1qa2345JDhDKehQNPxXo-10" style="edgeStyle=orthogonalEdgeStyle;rounded=0;orthogonalLoop=1;jettySize=auto;html=1;entryX=-0.006;entryY=0.359;entryDx=0;entryDy=0;entryPerimeter=0;" parent="1" source="1qa2345JDhDKehQNPxXo-3" target="1qa2345JDhDKehQNPxXo-5" edge="1">
          <mxGeometry relative="1" as="geometry">
            <mxPoint x="270" y="-290" as="targetPoint" />
          </mxGeometry>
        </mxCell>
        <mxCell id="1qa2345JDhDKehQNPxXo-3" value="" style="shape=image;verticalLabelPosition=bottom;labelBackgroundColor=default;verticalAlign=top;aspect=fixed;imageAspect=0;image=https://uploads-ssl.webflow.com/6340ceb04078362242dd4eb9/636131fe1f44d41e7af2eb78_terraform-logo.png;" parent="1" vertex="1">
          <mxGeometry x="20" y="-430" width="139.26" height="139" as="geometry" />
        </mxCell>
        <mxCell id="1qa2345JDhDKehQNPxXo-17" value="" style="edgeStyle=orthogonalEdgeStyle;rounded=0;orthogonalLoop=1;jettySize=auto;html=1;" parent="1" source="1qa2345JDhDKehQNPxXo-4" target="1qa2345JDhDKehQNPxXo-16" edge="1">
          <mxGeometry relative="1" as="geometry" />
        </mxCell>
        <mxCell id="1qa2345JDhDKehQNPxXo-4" value="" style="shape=image;verticalLabelPosition=bottom;labelBackgroundColor=default;verticalAlign=top;aspect=fixed;imageAspect=0;image=https://cdn-icons-png.flaticon.com/512/4341/4341764.png;" parent="1" vertex="1">
          <mxGeometry x="20" y="-160" width="130" height="130" as="geometry" />
        </mxCell>
        <mxCell id="1qa2345JDhDKehQNPxXo-62" style="edgeStyle=orthogonalEdgeStyle;rounded=0;orthogonalLoop=1;jettySize=auto;html=1;" parent="1" source="1qa2345JDhDKehQNPxXo-16" target="1qa2345JDhDKehQNPxXo-61" edge="1">
          <mxGeometry relative="1" as="geometry">
            <Array as="points">
              <mxPoint x="390" y="-96" />
              <mxPoint x="390" y="-96" />
            </Array>
          </mxGeometry>
        </mxCell>
        <mxCell id="1qa2345JDhDKehQNPxXo-16" value="Budget rules" style="shape=image;html=1;verticalAlign=top;verticalLabelPosition=bottom;labelBackgroundColor=#ffffff;imageAspect=0;aspect=fixed;image=https://cdn1.iconfinder.com/data/icons/competitive-strategy-and-corporate-training/512/698_Balance_budget_diagram_financial_graph_bank_banking_money_business-128.png" parent="1" vertex="1">
          <mxGeometry x="220" y="-159" width="128" height="128" as="geometry" />
        </mxCell>
        <mxCell id="1qa2345JDhDKehQNPxXo-65" style="edgeStyle=orthogonalEdgeStyle;rounded=0;orthogonalLoop=1;jettySize=auto;html=1;entryX=0;entryY=0.5;entryDx=0;entryDy=0;" parent="1" source="1qa2345JDhDKehQNPxXo-19" target="1qa2345JDhDKehQNPxXo-21" edge="1">
          <mxGeometry relative="1" as="geometry">
            <Array as="points">
              <mxPoint x="400" y="-750" />
              <mxPoint x="400" y="-675" />
            </Array>
          </mxGeometry>
        </mxCell>
        <mxCell id="1qa2345JDhDKehQNPxXo-19" value="MFA device" style="sketch=0;outlineConnect=0;fontColor=#232F3E;gradientColor=none;fillColor=#BF0816;strokeColor=none;dashed=0;verticalLabelPosition=bottom;verticalAlign=top;align=center;html=1;fontSize=12;fontStyle=0;aspect=fixed;pointerEvents=1;shape=mxgraph.aws4.mfa_token;" parent="1" vertex="1">
          <mxGeometry x="45.999999999999986" y="-789.5" width="78" height="78" as="geometry" />
        </mxCell>
        <mxCell id="xkbuqrlcCD7-52qOjMoG-29" style="edgeStyle=orthogonalEdgeStyle;rounded=0;orthogonalLoop=1;jettySize=auto;html=1;exitX=0.6;exitY=1;exitDx=0;exitDy=0;exitPerimeter=0;" edge="1" parent="1" source="1qa2345JDhDKehQNPxXo-22" target="xkbuqrlcCD7-52qOjMoG-28">
          <mxGeometry relative="1" as="geometry" />
        </mxCell>
        <mxCell id="1qa2345JDhDKehQNPxXo-22" value="" style="outlineConnect=0;dashed=0;verticalLabelPosition=bottom;verticalAlign=top;align=center;html=1;shape=mxgraph.aws3.internet;fillColor=#D2D3D3;gradientColor=none;" parent="1" vertex="1">
          <mxGeometry x="1600" y="-970" width="79.5" height="79.5" as="geometry" />
        </mxCell>
        <mxCell id="1qa2345JDhDKehQNPxXo-66" style="edgeStyle=orthogonalEdgeStyle;rounded=0;orthogonalLoop=1;jettySize=auto;html=1;entryX=0;entryY=0.5;entryDx=0;entryDy=0;" parent="1" source="1qa2345JDhDKehQNPxXo-64" target="1qa2345JDhDKehQNPxXo-21" edge="1">
          <mxGeometry relative="1" as="geometry">
            <Array as="points">
              <mxPoint x="400" y="-641" />
              <mxPoint x="400" y="-675" />
            </Array>
          </mxGeometry>
        </mxCell>
        <mxCell id="1qa2345JDhDKehQNPxXo-64" value="Access tocken" style="sketch=0;outlineConnect=0;fontColor=#232F3E;gradientColor=none;fillColor=#232F3D;strokeColor=none;dashed=0;verticalLabelPosition=bottom;verticalAlign=top;align=center;html=1;fontSize=12;fontStyle=0;aspect=fixed;pointerEvents=1;shape=mxgraph.aws4.saml_token;" parent="1" vertex="1">
          <mxGeometry x="40" y="-680" width="78" height="78" as="geometry" />
        </mxCell>
        <mxCell id="1qa2345JDhDKehQNPxXo-67" value="&lt;div&gt;Add Elasticache&lt;/div&gt;&lt;div&gt;Add CloudWatch&lt;/div&gt;&lt;div&gt;Add Flow Logs&lt;br&gt;&lt;/div&gt;&lt;div&gt;Wrap EC2 into ASG&lt;br&gt;&lt;/div&gt;&lt;div&gt;Add S3 buckets for data and logs&lt;br&gt;&lt;/div&gt;&lt;div&gt;Add S3 Tiering&lt;/div&gt;" style="strokeWidth=1;shadow=0;dashed=0;align=center;html=1;shape=mxgraph.mockup.text.stickyNote2;fontColor=#666666;mainText=;fontSize=17;whiteSpace=wrap;fillColor=#ffffcc;strokeColor=#F62E00;" parent="1" vertex="1">
          <mxGeometry x="60" y="380" width="370" height="410" as="geometry" />
        </mxCell>
        <mxCell id="1qa2345JDhDKehQNPxXo-78" style="edgeStyle=orthogonalEdgeStyle;rounded=0;orthogonalLoop=1;jettySize=auto;html=1;entryX=0;entryY=0.5;entryDx=0;entryDy=0;entryPerimeter=0;" parent="1" source="1qa2345JDhDKehQNPxXo-70" target="1qa2345JDhDKehQNPxXo-76" edge="1">
          <mxGeometry relative="1" as="geometry">
            <Array as="points">
              <mxPoint x="1239" y="-66" />
              <mxPoint x="1190" y="-66" />
              <mxPoint x="1190" y="-322" />
            </Array>
          </mxGeometry>
        </mxCell>
        <mxCell id="1qa2345JDhDKehQNPxXo-85" style="edgeStyle=orthogonalEdgeStyle;rounded=0;orthogonalLoop=1;jettySize=auto;html=1;exitX=0.5;exitY=0;exitDx=0;exitDy=0;entryX=0.75;entryY=1;entryDx=0;entryDy=0;" parent="1" source="1qa2345JDhDKehQNPxXo-81" target="1qa2345JDhDKehQNPxXo-80" edge="1">
          <mxGeometry relative="1" as="geometry">
            <Array as="points">
              <mxPoint x="1400" y="155" />
            </Array>
          </mxGeometry>
        </mxCell>
        <mxCell id="xkbuqrlcCD7-52qOjMoG-1" value="&amp;nbsp;" style="text;whiteSpace=wrap;html=1;" vertex="1" parent="1">
          <mxGeometry x="920" y="-660" width="40" height="40" as="geometry" />
        </mxCell>
        <mxCell id="xkbuqrlcCD7-52qOjMoG-47" style="edgeStyle=orthogonalEdgeStyle;rounded=0;orthogonalLoop=1;jettySize=auto;html=1;" edge="1" parent="1" source="xkbuqrlcCD7-52qOjMoG-44" target="1qa2345JDhDKehQNPxXo-71">
          <mxGeometry relative="1" as="geometry">
            <Array as="points">
              <mxPoint x="1140" y="-718" />
              <mxPoint x="1140" y="-540" />
              <mxPoint x="1250" y="-540" />
            </Array>
          </mxGeometry>
        </mxCell>
      </root>
    </mxGraphModel>
  </diagram>
</mxfile>
